<svg width="64" height="64" viewBox="0 0 64 64" fill="none" xmlns="http://www.w3.org/2000/svg">
  <defs>
    <linearGradient id="paint0_linear" x1="0" y1="0" x2="64" y2="64" gradientUnits="userSpaceOnUse">
      <stop stop-color="#3B82F6"/>
      <stop offset="1" stop-color="#8B5CF6"/>
    </linearGradient>
    <filter id="filter0_d" x="0" y="0" width="64" height="64" filterUnits="userSpaceOnUse" color-interpolation-filters="sRGB">
      <feFlood flood-opacity="0" result="BackgroundImageFix"/>
      <feColorMatrix in="SourceAlpha" type="matrix" values="0 0 0 0 0 0 0 0 0 0 0 0 0 0 0 0 0 0 127 0"/>
      <feOffset dy="2"/>
      <feGaussianBlur stdDeviation="3"/>
      <feColorMatrix type="matrix" values="0 0 0 0 0 0 0 0 0 0 0 0 0 0 0 0 0 0 0.2 0"/>
      <feBlend mode="normal" in2="BackgroundImageFix" result="effect1_dropShadow"/>
      <feBlend mode="normal" in="SourceGraphic" in2="effect1_dropShadow" result="shape"/>
    </filter>
  </defs>
  <rect width="64" height="64" rx="16" fill="white"/>
  <rect x="4" y="4" width="56" height="56" rx="14" fill="url(#paint0_linear)"/>
  <!-- AI Brain / Robot Head Shape -->
  <path d="M32 16C23.1634 16 16 23.1634 16 32C16 40.8366 23.1634 48 32 48C40.8366 48 48 40.8366 48 32C48 23.1634 40.8366 16 32 16ZM32 44C25.3726 44 20 38.6274 20 32C20 25.3726 25.3726 20 32 20C38.6274 20 44 25.3726 44 32C44 38.6274 38.6274 44 32 44Z" fill="white" fill-opacity="0.9"/>
  <path d="M26 32C26 30.8954 26.8954 30 28 30C29.1046 30 30 30.8954 30 32C30 33.1046 29.1046 34 28 34C26.8954 34 26 33.1046 26 32ZM34 32C34 30.8954 34.8954 30 36 30C37.1046 30 38 30.8954 38 32C38 33.1046 37.1046 34 36 34C34.8954 34 34 33.1046 34 32Z" fill="white"/>
  <path d="M28 38C28 38 30 40 32 40C34 40 36 38 36 38" stroke="white" stroke-width="2" stroke-linecap="round"/>
</svg>
